<svg xmlns="http://www.w3.org/2000/svg" height="24" viewBox="0 -960 960 960" width="24"><path fill="#ffffff" d="M603.435-251.348q-18.261-17.695-18.544-43.435-.282-25.739 17.979-44l80.303-79.738h-401.26q-25.956 0-43.717-18.044T220.435-480q0-25.391 17.761-43.435 17.761-18.044 43.717-18.044h401.26l-80.303-80.738q-17.827-17.826-17.761-43 .065-25.174 18.326-42.87 17.261-17.826 42.652-17.826 25.392 0 43.218 17.826L874.74-522.652q9.13 9.13 13.195 20.043 4.066 10.913 4.066 22.609 0 11.696-4.066 22.609-4.065 10.913-13.195 20.043L689.305-251.913q-17.826 18.392-42.435 18.392t-43.435-17.827Zm-499.479 32.827q-25.391 0-43.435-18.044Q42.477-254.609 42.477-280v-400q0-25.391 18.044-43.435 18.044-18.044 43.435-18.044 25.957 0 43.718 18.044 17.761 18.044 17.761 43.435v400q0 25.391-17.761 43.435-17.761 18.044-43.718 18.044Z"/></svg>